<?xml version="1.0" encoding="utf-8"?>
<!-- Generator: Adobe Illustrator 25.0.1, SVG Export Plug-In . SVG Version: 6.00 Build 0)  -->
<svg version="1.1" id="Layer_1" xmlns="http://www.w3.org/2000/svg" xmlns:xlink="http://www.w3.org/1999/xlink" x="0px" y="0px"
	 viewBox="0 0 415.5 58.3" style="enable-background:new 0 0 415.5 58.3;" xml:space="preserve">
<style type="text/css">
	.st0{fill-rule:evenodd;clip-rule:evenodd;}
</style>
<g>
	<g>
		<path d="M105.6,46.9V11.4h35.5v35.5H134V18.5h-7.1v28.4h-7.1V18.5h-7.1v28.4H105.6z"/>
		<path d="M160,11.4v35.5h-7.1V11.4H160z"/>
		<path d="M207.3,18.5H179v7.1h28.4v21.3h-35.5v-7.1h28.4v-7.1h-28.4V11.4h35.5V18.5z"/>
		<path d="M254.7,18.5h-28.4v7.1h28.4v21.3h-35.5v-7.1h28.4v-7.1h-28.4V11.4h35.5V18.5z"/>
		<path d="M273.6,11.4v35.5h-7.1V11.4H273.6z"/>
		<path d="M285.4,46.9V11.4h35.5v35.5H285.4z M313.8,39.8V18.5h-21.3v21.3H313.8z"/>
		<path d="M332.8,46.9V11.4h7.1l21.3,25.2V11.4h7.1v35.5h-7.1l-21.3-24.4v24.4H332.8z"/>
		<path d="M415.5,18.5h-28.4v7.1h28.4v21.3h-35.5v-7.1h28.4v-7.1h-28.4V11.4h35.5V18.5z"/>
	</g>
	<polygon class="st0" points="54.1,0 38.6,15.5 23.2,0 0,0 0,58.3 19.2,58.3 38.6,38.8 19.2,38.8 19.2,19.5 38.6,38.8 58,19.5 
		58,38.8 38.6,38.8 58,58.3 77.3,58.3 77.3,0 	"/>
</g>
</svg>
